HIERARCHY
ROOT Hips
{
	OFFSET 62.890800 8.863803 43.568401
	CHANNELS 6 Xposition Yposition Zposition Zrotation Xrotation Yrotation
	JOINT Chest
	{
		OFFSET -0.160400 1.630001 7.806301
		CHANNELS 6 Xposition Yposition Zposition Zrotation Xrotation Yrotation
		JOINT Chest2
		{
			OFFSET 0.000000 0.000000 3.197998
			CHANNELS 6 Xposition Yposition Zposition Zrotation Xrotation Yrotation
			JOINT Neck
			{
				OFFSET 0.000000 0.000001 7.440701
				CHANNELS 6 Xposition Yposition Zposition Zrotation Xrotation Yrotation
				JOINT Head
				{
					OFFSET 0.000000 0.000000 2.173901
					CHANNELS 6 Xposition Yposition Zposition Zrotation Xrotation Yrotation
					End Site
					{
						OFFSET 0.000000 0.000001 10.420303
					}
				}
			}
			JOINT LeftCollar
			{
				OFFSET 2.426399 -1.880099 4.759399
				CHANNELS 6 Xposition Yposition Zposition Zrotation Xrotation Yrotation
				JOINT LeftShoulder
				{
					OFFSET 4.420197 0.000000 0.000000
					CHANNELS 6 Xposition Yposition Zposition Zrotation Xrotation Yrotation
					JOINT LeftElbow
					{
						OFFSET 0.000000 -0.000001 -10.347099
						CHANNELS 6 Xposition Yposition Zposition Zrotation Xrotation Yrotation
						JOINT LeftWrist
						{
							OFFSET 0.000000 -0.000001 -12.496300
							CHANNELS 6 Xposition Yposition Zposition Zrotation Xrotation Yrotation
							End Site
							{
								OFFSET 0.000000 0.000000 -2.173901
							}
						}
					}
				}
			}
			JOINT RightCollar
			{
				OFFSET -2.781502 -1.903799 5.072601
				CHANNELS 6 Xposition Yposition Zposition Zrotation Xrotation Yrotation
				JOINT RightShoulder
				{
					OFFSET -4.012100 0.000000 0.000000
					CHANNELS 6 Xposition Yposition Zposition Zrotation Xrotation Yrotation
					JOINT RightElbow
					{
						OFFSET 0.000000 -0.000001 -10.346600
						CHANNELS 6 Xposition Yposition Zposition Zrotation Xrotation Yrotation
						JOINT RightWrist
						{
							OFFSET 0.000000 -0.000001 -12.562599
							CHANNELS 6 Xposition Yposition Zposition Zrotation Xrotation Yrotation
							End Site
							{
								OFFSET 0.000000 0.000000 -2.173901
							}
						}
					}
				}
			}
		}
	}
	JOINT LeftHip
	{
		OFFSET 2.047997 -0.047200 -2.693199
		CHANNELS 6 Xposition Yposition Zposition Zrotation Xrotation Yrotation
		JOINT LeftKnee
		{
			OFFSET 0.000000 -0.000001 -18.824400
			CHANNELS 6 Xposition Yposition Zposition Zrotation Xrotation Yrotation
			JOINT LeftAnkle
			{
				OFFSET 0.000000 -0.000002 -19.078199
				CHANNELS 6 Xposition Yposition Zposition Zrotation Xrotation Yrotation
				End Site
				{
					OFFSET 0.000000 -9.342100 0.000001
				}
			}
		}
	}
	JOINT RightHip
	{
		OFFSET -2.129898 -0.022300 -2.538300
		CHANNELS 6 Xposition Yposition Zposition Zrotation Xrotation Yrotation
		JOINT RightKnee
		{
			OFFSET 0.000000 -0.000001 -18.644600
			CHANNELS 6 Xposition Yposition Zposition Zrotation Xrotation Yrotation
			JOINT RightAnkle
			{
				OFFSET 0.000000 -0.000002 -18.801399
				CHANNELS 6 Xposition Yposition Zposition Zrotation Xrotation Yrotation
				End Site
				{
					OFFSET 0.000000 -8.914600 0.000001
				}
			}
		}
	}
}
MOTION
Frames: 8
Frame Time: 0.041667
80.793808 88.073196 40.543324 3257.196348 -14.474696 337.086419 -0.160396 1.629996 7.806292 -23.680995 14.137941 14.083426 -0.000006 0.000003 3.198007 14.346160 -7.951959 1.691231 0.000000 -0.000002 7.440707 -33.376430 10.609265 26.425691 -0.000014 -0.000008 2.173907 -1.337980 2.690652 4.040320 2.426401 -1.880100 4.759398 -169.171778 181.552534 -185.420839 4.420187 0.000000 0.000001 -21.217942 -5.871406 -116.320075 -0.000001 0.000000 -10.347084 934.046401 -156.058102 -174.287467 -0.000000 -0.000003 -12.496302 70.894386 1.708495 -2.628482 -2.781499 -1.903801 5.072604 -174.351944 -195.198569 178.743523 -4.012088 -0.000001 0.000002 -1.979008 -9.492974 455.893926 0.000004 -0.000006 -10.346609 -281.911058 -120.763782 -302.714230 -0.000009 -0.000013 -12.562610 869.498162 556.388740 -883.982316 2.048003 -0.047195 -2.693206 720.874120 -6.264106 -2.732910 -0.000009 0.000000 -18.824404 -338.919751 22.307881 5.356325 0.000002 -0.000001 -19.078197 -404.588332 23.550904 15.064675 -2.129892 -0.022300 -2.538307 -683.911759 38.294723 26.844873 0.000002 -0.000000 -18.644596 158.682397 -204.202507 133.224739 -0.000007 0.000001 -18.801407 125.618148 197.255563 120.855526
80.805809 88.062996 40.548626 3257.195255 -14.435164 336.974104 -0.160408 1.630004 7.806302 -23.669667 14.080806 14.026158 0.000000 0.000015 3.198000 14.478246 -7.932110 1.717365 -0.000007 -0.000001 7.440700 -33.471137 10.491503 26.627436 -0.000003 0.000005 2.173907 -1.388467 2.773540 3.907628 2.426401 -1.880097 4.759401 -169.040502 181.560703 -185.463747 4.420194 0.000003 0.000004 -21.564394 -5.910627 -116.092452 0.000004 -0.000017 -10.347078 934.068913 -156.044974 -174.290513 -0.000008 0.000001 -12.496306 70.530255 1.717077 -2.679416 -2.781504 -1.903798 5.072602 -174.328667 -195.254795 178.937965 -4.012085 0.000002 -0.000005 -2.104662 -9.437412 455.805024 0.000001 0.000002 -10.346605 -281.731206 -120.972021 -302.538995 0.000003 -0.000005 -12.562592 869.652962 556.421033 -883.984939 2.047990 -0.047193 -2.693198 720.526655 -6.193165 -2.661291 -0.000001 0.000006 -18.824398 -338.798201 22.201535 5.484383 0.000006 -0.000006 -19.078199 -404.425473 23.441587 15.445961 -2.129898 -0.022291 -2.538302 -681.304376 39.788789 25.298321 0.000003 -0.000003 -18.644600 157.540062 -202.399474 132.626960 0.000017 -0.000007 -18.801405 123.833502 197.478309 120.070163
80.817505 88.052704 40.553322 3257.214489 -14.346961 336.872088 -0.160402 1.630006 7.806314 -23.642041 13.951653 13.928637 -0.000001 0.000011 3.197999 14.596878 -7.895273 1.738626 -0.000002 0.000003 7.440701 -33.533094 10.399825 26.812251 -0.000015 -0.000004 2.173900 -1.428946 2.842409 3.800645 2.426398 -1.880104 4.759394 -168.912818 181.640999 -185.565393 4.420202 0.000007 0.000004 -21.893801 -5.923254 -115.781733 0.000000 0.000003 -10.347086 933.984547 -156.035658 -174.317602 -0.000008 -0.000010 -12.496302 70.325711 1.673543 -2.679189 -2.781510 -1.903802 5.072599 -174.335784 -195.263401 179.200627 -4.012111 -0.000014 -0.000002 -2.212634 -9.344667 455.663284 0.000003 0.000003 -10.346610 -281.678176 -121.123160 -302.487276 0.000001 0.000004 -12.562597 869.751972 556.396499 -883.959148 2.047996 -0.047186 -2.693193 720.109631 -6.160219 -2.606083 -0.000002 0.000006 -18.824394 -338.640369 22.076423 5.633651 -0.000000 -0.000013 -19.078199 -404.205322 23.371369 15.650550 -2.129900 -0.022287 -2.538295 -675.886123 42.404659 21.861668 -0.000007 -0.000003 -18.644602 154.944125 -199.187441 131.634042 -0.000004 0.000000 -18.801401 120.770995 197.878763 118.737976
80.827011 88.044701 40.557716 3257.213615 -14.209135 336.783596 -0.160405 1.630007 7.806297 -23.569472 13.783754 13.823762 0.000013 -0.000006 3.198000 14.675343 -7.852559 1.748324 0.000005 -0.000005 7.440698 -33.573771 10.311389 26.975405 -0.000002 -0.000008 2.173914 -1.431844 2.896204 3.719848 2.426402 -1.880118 4.759391 -168.821007 181.783559 -185.668365 4.420215 0.000001 0.000001 -22.138750 -5.878268 -115.505616 -0.000008 -0.000009 -10.347088 933.833299 -156.052009 -174.360277 0.000000 0.000005 -12.496300 70.270140 1.607974 -2.606709 -2.781499 -1.903811 5.072600 -174.368268 -195.232556 179.457469 -4.012098 -0.000009 -0.000000 -2.258620 -9.243754 455.519632 0.000001 0.000009 -10.346603 -281.760521 -121.206105 -302.555387 0.000001 -0.000019 -12.562602 869.794647 556.317378 -883.955760 2.047989 -0.047200 -2.693204 719.841068 -6.198292 -2.556223 -0.000008 -0.000008 -18.824394 -338.467839 21.986275 5.733222 0.000010 -0.000001 -19.078199 -404.106640 23.298948 15.891215 -2.129906 -0.022305 -2.538305 -670.725724 44.460744 18.470940 -0.000003 0.000003 -18.644602 152.460887 -196.439929 130.876615 -0.000004 -0.000000 -18.801397 118.210972 198.168363 117.743924
80.834106 88.038094 40.561329 3257.222358 -14.014344 336.720239 -0.160404 1.630003 7.806302 -23.473315 13.562106 13.697699 0.000010 0.000015 3.198003 14.730818 -7.808568 1.752029 0.000000 0.000008 7.440697 -33.594774 10.208543 27.110238 -0.000006 -0.000007 2.173898 -1.407079 2.944428 3.656955 2.426401 -1.880094 4.759398 -168.756844 181.964709 -185.787115 4.420195 0.000005 0.000008 -22.318633 -5.825864 -115.240796 -0.000000 -0.000007 -10.347088 933.750572 -156.058348 -174.356247 0.000008 -0.000003 -12.496294 70.145660 1.561414 -2.497659 -2.781501 -1.903806 5.072594 -174.422158 -195.162082 179.709613 -4.012093 -0.000004 -0.000004 -2.296770 -9.131510 455.341992 0.000004 0.000003 -10.346610 -281.968869 -121.213059 -302.730978 -0.000003 -0.000004 -12.562601 869.764868 556.216510 -883.871503 2.047996 -0.047198 -2.693191 719.654904 -6.312982 -2.520590 -0.000016 -0.000004 -18.824402 -338.288123 21.916410 5.798228 0.000026 -0.000007 -19.078201 -404.073964 23.246356 16.026709 -2.129893 -0.022290 -2.538300 -662.811556 46.907625 12.995686 -0.000011 0.000010 -18.644598 148.806572 -192.676700 129.944048 -0.000001 -0.000010 -18.801394 114.679095 198.579076 116.354390
80.840111 88.033493 40.564426 3257.242466 -13.768580 336.675925 -0.160408 1.629992 7.806297 -23.357620 13.295601 13.537148 -0.000014 -0.000010 3.197999 14.784318 -7.758655 1.754124 -0.000009 0.000004 7.440706 -33.653281 10.125065 27.262876 -0.000005 -0.000016 2.173907 -1.380083 2.952943 3.603874 2.426401 -1.880093 4.759398 -168.693050 182.199886 -185.910195 4.420214 0.000006 0.000004 -22.493227 -5.754685 -114.962985 -0.000003 0.000009 -10.347088 933.651015 -156.063184 -174.352531 -0.000001 -0.000001 -12.496314 70.043317 1.508608 -2.386594 -2.781502 -1.903799 5.072600 -174.494845 -195.050395 180.015264 -4.012086 -0.000012 -0.000001 -2.342175 -9.073448 455.095177 -0.000001 0.000002 -10.346601 -282.241284 -121.127135 -303.043882 0.000002 -0.000005 -12.562601 869.641979 556.083512 -883.853799 2.047999 -0.047208 -2.693199 719.600536 -6.509077 -2.484753 0.000007 0.000002 -18.824406 -338.138869 21.878923 5.819416 -0.000008 -0.000003 -19.078201 -404.066068 23.263848 15.993084 -2.129904 -0.022304 -2.538303 -654.233221 48.764897 6.841621 0.000012 0.000008 -18.644596 144.936314 -188.874989 129.142116 -0.000013 -0.000019 -18.801399 111.202829 198.942032 115.150637
80.845016 88.030304 40.567322 3257.259295 -13.555024 336.657866 -0.160426 1.629986 7.806300 -23.263658 13.095387 13.414532 0.000003 0.000016 3.197996 14.821053 -7.730079 1.754533 -0.000000 -0.000003 7.440703 -33.713455 10.055511 27.366669 -0.000007 -0.000013 2.173905 -1.342193 2.939369 3.588116 2.426393 -1.880108 4.759395 -168.668229 182.311218 -185.934866 4.420201 -0.000004 0.000002 -22.583991 -5.746994 -114.856024 0.000007 0.000012 -10.347077 933.522716 -156.039660 -174.385849 0.000007 0.000012 -12.496291 70.076266 1.451818 -2.299259 -2.781512 -1.903802 5.072601 -174.531482 -195.004742 180.145830 -4.012089 -0.000008 -0.000001 -2.300929 -9.062549 454.993161 0.000006 0.000001 -10.346603 -282.342071 -121.040760 -303.151417 -0.000005 0.000004 -12.562598 869.562257 555.981770 -883.887459 2.047981 -0.047218 -2.693204 719.609989 -6.690796 -2.461366 0.000001 0.000008 -18.824396 -338.041389 21.856841 5.819076 -0.000014 0.000007 -19.078199 -404.062681 23.303794 15.805736 -2.129916 -0.022310 -2.538310 -646.861262 49.783579 1.423288 0.000001 0.000004 -18.644590 141.692452 -185.904704 128.592190 0.000006 -0.000006 -18.801399 108.461942 199.203177 114.222954
80.849510 88.028191 40.570431 3257.272628 -13.387043 336.658658 -0.160404 1.629999 7.806304 -23.201657 12.985830 13.336422 0.000011 -0.000015 3.197996 14.852328 -7.731671 1.757358 -0.000003 0.000016 7.440701 -33.765583 9.990184 27.414052 -0.000019 -0.000016 2.173913 -1.306458 2.914212 3.598331 2.426392 -1.880093 4.759401 -168.692231 182.302708 -185.826457 4.420196 0.000001 0.000005 -22.591196 -5.748200 -114.970908 -0.000008 -0.000002 -10.347074 933.495396 -156.021233 -174.392980 0.000007 0.000012 -12.496298 70.146924 1.405796 -2.265710 -2.781512 -1.903803 5.072606 -174.501867 -195.022077 180.110996 -4.012092 0.000002 0.000006 -2.269204 -9.090161 455.030372 0.000010 -0.000007 -10.346603 -282.338464 -121.005954 -303.134068 0.000003 -0.000002 -12.562593 869.560344 555.935215 -883.953356 2.047999 -0.047199 -2.693197 719.721458 -6.852885 -2.438915 0.000008 0.000006 -18.824400 -338.004533 21.859479 5.786045 0.000000 -0.000006 -19.078201 -404.095383 23.370616 15.471647 -2.129895 -0.022301 -2.538301 -645.111531 49.927686 0.202262 -0.000008 0.000003 -18.644600 140.852626 -185.200484 128.510952 -0.000008 -0.000006 -18.801399 107.833189 199.209420 114.061502
